<mxfile host="Electron" agent="Mozilla/5.0 (Windows NT 10.0; Win64; x64) AppleWebKit/537.36 (KHTML, like Gecko) draw.io/26.0.16 Chrome/132.0.6834.196 Electron/34.2.0 Safari/537.36" version="26.0.16">
  <diagram name="Page-1" id="peyEibmuPBrEOqCLHU_J">
    <mxGraphModel dx="2570" dy="2056" grid="1" gridSize="10" guides="1" tooltips="1" connect="1" arrows="1" fold="1" page="1" pageScale="1" pageWidth="850" pageHeight="1100" math="0" shadow="0">
      <root>
        <mxCell id="0" />
        <mxCell id="1" parent="0" />
        <mxCell id="Ko-V__wU-UTkMVfYC2i_-1" value="User" style="swimlane;childLayout=stackLayout;horizontal=1;startSize=50;horizontalStack=0;rounded=1;fontSize=14;fontStyle=0;strokeWidth=2;resizeParent=0;resizeLast=1;shadow=0;dashed=0;align=center;arcSize=4;whiteSpace=wrap;html=1;" parent="1" vertex="1">
          <mxGeometry x="377.55999999999995" y="-210" width="160" height="220" as="geometry" />
        </mxCell>
        <mxCell id="Ko-V__wU-UTkMVfYC2i_-2" value="&lt;u&gt;&lt;b&gt;user_id&lt;/b&gt;&lt;/u&gt;&lt;div&gt;first_name&amp;nbsp;&lt;/div&gt;&lt;div&gt;last_name&amp;nbsp;&lt;/div&gt;&lt;div&gt;email&lt;/div&gt;&lt;div&gt;password&lt;/div&gt;&lt;div&gt;registration_date&lt;/div&gt;&lt;div&gt;account_status&lt;/div&gt;&lt;div&gt;user_role (admin, user)&lt;/div&gt;&lt;div&gt;user_profile_picture&lt;/div&gt;" style="align=left;strokeColor=none;fillColor=none;spacingLeft=4;spacingRight=4;fontSize=12;verticalAlign=top;resizable=0;rotatable=0;part=1;html=1;whiteSpace=wrap;" parent="Ko-V__wU-UTkMVfYC2i_-1" vertex="1">
          <mxGeometry y="50" width="160" height="170" as="geometry" />
        </mxCell>
        <mxCell id="Ko-V__wU-UTkMVfYC2i_-50" value="payment" style="shape=rhombus;perimeter=rhombusPerimeter;whiteSpace=wrap;html=1;align=center;" parent="1" vertex="1">
          <mxGeometry x="330" y="-690" width="120" height="60" as="geometry" />
        </mxCell>
        <mxCell id="Ko-V__wU-UTkMVfYC2i_-51" value="Peyments" style="swimlane;childLayout=stackLayout;horizontal=1;startSize=45;horizontalStack=0;rounded=1;fontSize=14;fontStyle=0;strokeWidth=2;resizeParent=0;resizeLast=1;shadow=0;dashed=0;align=center;arcSize=4;whiteSpace=wrap;html=1;" parent="1" vertex="1">
          <mxGeometry x="310" y="-540" width="160" height="190" as="geometry" />
        </mxCell>
        <mxCell id="Ko-V__wU-UTkMVfYC2i_-52" value="&lt;div&gt;&lt;u&gt;&lt;b&gt;reservation_id&lt;/b&gt;&lt;/u&gt;&lt;/div&gt;&lt;div&gt;&lt;u&gt;&lt;b&gt;user_id&lt;/b&gt;&lt;/u&gt;&lt;/div&gt;&lt;div&gt;&lt;u&gt;payment_id&lt;/u&gt;&lt;/div&gt;&lt;div&gt;peyment_method (code)&lt;/div&gt;&lt;div&gt;amount_paid&lt;/div&gt;&lt;div&gt;date&lt;/div&gt;" style="align=left;strokeColor=none;fillColor=none;spacingLeft=4;spacingRight=4;fontSize=12;verticalAlign=top;resizable=0;rotatable=0;part=1;html=1;whiteSpace=wrap;" parent="Ko-V__wU-UTkMVfYC2i_-51" vertex="1">
          <mxGeometry y="45" width="160" height="145" as="geometry" />
        </mxCell>
        <mxCell id="w_BAtCDAccpkAh1Shh3j-2" style="edgeStyle=orthogonalEdgeStyle;rounded=0;orthogonalLoop=1;jettySize=auto;html=1;exitX=0.5;exitY=1;exitDx=0;exitDy=0;" edge="1" parent="Ko-V__wU-UTkMVfYC2i_-51" source="Ko-V__wU-UTkMVfYC2i_-52" target="Ko-V__wU-UTkMVfYC2i_-52">
          <mxGeometry relative="1" as="geometry" />
        </mxCell>
        <mxCell id="Ko-V__wU-UTkMVfYC2i_-74" value="Reports" style="swimlane;childLayout=stackLayout;horizontal=1;startSize=50;horizontalStack=0;rounded=1;fontSize=14;fontStyle=0;strokeWidth=2;resizeParent=0;resizeLast=1;shadow=0;dashed=0;align=center;arcSize=4;whiteSpace=wrap;html=1;" parent="1" vertex="1">
          <mxGeometry x="812.5" y="265.05999999999995" width="160" height="200" as="geometry" />
        </mxCell>
        <mxCell id="Ko-V__wU-UTkMVfYC2i_-75" value="&lt;div&gt;&lt;u style=&quot;background-color: transparent; color: light-dark(rgb(0, 0, 0), rgb(255, 255, 255));&quot;&gt;&lt;b&gt;reports_id&lt;/b&gt;&lt;/u&gt;&lt;/div&gt;&lt;div&gt;user_id_that_reported&lt;/div&gt;&lt;div&gt;user_resevation_id (null)&lt;/div&gt;&lt;div&gt;report_categorie&amp;nbsp;&lt;/div&gt;&lt;div&gt;&lt;span style=&quot;background-color: transparent; color: light-dark(rgb(0, 0, 0), rgb(255, 255, 255));&quot;&gt;perceeding_status&amp;nbsp;&lt;/span&gt;&lt;/div&gt;&lt;div&gt;report_text&amp;nbsp;&lt;/div&gt;" style="align=left;strokeColor=none;fillColor=none;spacingLeft=4;spacingRight=4;fontSize=12;verticalAlign=top;resizable=0;rotatable=0;part=1;html=1;whiteSpace=wrap;" parent="Ko-V__wU-UTkMVfYC2i_-74" vertex="1">
          <mxGeometry y="50" width="160" height="150" as="geometry" />
        </mxCell>
        <mxCell id="vnD2Sq1QzelHkMzMxqHE-1" value="phone_number" style="ellipse;shape=doubleEllipse;margin=3;whiteSpace=wrap;html=1;align=center;" parent="1" vertex="1">
          <mxGeometry x="580" y="-200" width="100" height="40" as="geometry" />
        </mxCell>
        <mxCell id="vnD2Sq1QzelHkMzMxqHE-6" value="" style="endArrow=none;html=1;rounded=0;entryX=0;entryY=0.5;entryDx=0;entryDy=0;exitX=1;exitY=0.25;exitDx=0;exitDy=0;" parent="1" source="Ko-V__wU-UTkMVfYC2i_-1" target="vnD2Sq1QzelHkMzMxqHE-1" edge="1">
          <mxGeometry relative="1" as="geometry">
            <mxPoint x="297.5" y="110" as="sourcePoint" />
            <mxPoint x="457.5" y="110" as="targetPoint" />
          </mxGeometry>
        </mxCell>
        <mxCell id="vnD2Sq1QzelHkMzMxqHE-7" value="address" style="ellipse;whiteSpace=wrap;html=1;align=center;" parent="1" vertex="1">
          <mxGeometry x="580" y="-120" width="100" height="40" as="geometry" />
        </mxCell>
        <mxCell id="vnD2Sq1QzelHkMzMxqHE-11" value="" style="endArrow=none;html=1;rounded=0;entryX=0.5;entryY=0;entryDx=0;entryDy=0;exitX=0.5;exitY=1;exitDx=0;exitDy=0;" parent="1" source="vnD2Sq1QzelHkMzMxqHE-7" target="vnD2Sq1QzelHkMzMxqHE-15" edge="1">
          <mxGeometry relative="1" as="geometry">
            <mxPoint x="280" y="110" as="sourcePoint" />
            <mxPoint x="655" y="-20" as="targetPoint" />
          </mxGeometry>
        </mxCell>
        <mxCell id="vnD2Sq1QzelHkMzMxqHE-12" value="" style="endArrow=none;html=1;rounded=0;entryX=0;entryY=0;entryDx=0;entryDy=0;exitX=1;exitY=1;exitDx=0;exitDy=0;" parent="1" source="vnD2Sq1QzelHkMzMxqHE-7" target="vnD2Sq1QzelHkMzMxqHE-16" edge="1">
          <mxGeometry relative="1" as="geometry">
            <mxPoint x="280" y="110" as="sourcePoint" />
            <mxPoint x="714.6446609406726" y="-44.142135623731065" as="targetPoint" />
          </mxGeometry>
        </mxCell>
        <mxCell id="vnD2Sq1QzelHkMzMxqHE-13" value="" style="endArrow=none;html=1;rounded=0;entryX=0;entryY=0.5;entryDx=0;entryDy=0;exitX=1;exitY=0.5;exitDx=0;exitDy=0;" parent="1" source="vnD2Sq1QzelHkMzMxqHE-7" edge="1">
          <mxGeometry relative="1" as="geometry">
            <mxPoint x="280" y="110" as="sourcePoint" />
            <mxPoint x="710" y="-90" as="targetPoint" />
          </mxGeometry>
        </mxCell>
        <mxCell id="vnD2Sq1QzelHkMzMxqHE-14" value="" style="endArrow=none;html=1;rounded=0;entryX=0;entryY=0.5;entryDx=0;entryDy=0;exitX=1;exitY=0.25;exitDx=0;exitDy=0;" parent="1" source="Ko-V__wU-UTkMVfYC2i_-2" target="vnD2Sq1QzelHkMzMxqHE-7" edge="1">
          <mxGeometry relative="1" as="geometry">
            <mxPoint x="297.5" y="110" as="sourcePoint" />
            <mxPoint x="457.5" y="110" as="targetPoint" />
          </mxGeometry>
        </mxCell>
        <mxCell id="vnD2Sq1QzelHkMzMxqHE-15" value="house_plate" style="ellipse;whiteSpace=wrap;html=1;align=center;" parent="1" vertex="1">
          <mxGeometry x="610" y="-20" width="100" height="40" as="geometry" />
        </mxCell>
        <mxCell id="vnD2Sq1QzelHkMzMxqHE-16" value="neighborhood" style="ellipse;whiteSpace=wrap;html=1;align=center;" parent="1" vertex="1">
          <mxGeometry x="690" y="-60" width="100" height="40" as="geometry" />
        </mxCell>
        <mxCell id="vnD2Sq1QzelHkMzMxqHE-17" value="city" style="ellipse;whiteSpace=wrap;html=1;align=center;" parent="1" vertex="1">
          <mxGeometry x="710" y="-110" width="100" height="40" as="geometry" />
        </mxCell>
        <mxCell id="vnD2Sq1QzelHkMzMxqHE-18" value="Admin" style="swimlane;childLayout=stackLayout;horizontal=1;startSize=50;horizontalStack=0;rounded=1;fontSize=14;fontStyle=0;strokeWidth=2;resizeParent=0;resizeLast=1;shadow=0;dashed=0;align=center;arcSize=4;whiteSpace=wrap;html=1;" parent="1" vertex="1">
          <mxGeometry x="457.5" y="110" width="160" height="100" as="geometry" />
        </mxCell>
        <mxCell id="vnD2Sq1QzelHkMzMxqHE-24" value="cancel" style="shape=rhombus;perimeter=rhombusPerimeter;whiteSpace=wrap;html=1;align=center;" parent="1" vertex="1">
          <mxGeometry x="47.49999999999977" y="-120" width="120" height="60" as="geometry" />
        </mxCell>
        <mxCell id="vnD2Sq1QzelHkMzMxqHE-25" value="book&lt;div&gt;(reservation)&lt;/div&gt;" style="shape=rhombus;perimeter=rhombusPerimeter;whiteSpace=wrap;html=1;align=center;" parent="1" vertex="1">
          <mxGeometry x="87.49999999999977" y="-200" width="120" height="60" as="geometry" />
        </mxCell>
        <mxCell id="vnD2Sq1QzelHkMzMxqHE-28" value="" style="endArrow=none;html=1;rounded=0;entryX=1;entryY=0.5;entryDx=0;entryDy=0;exitX=0;exitY=0.5;exitDx=0;exitDy=0;" parent="1" source="Ko-V__wU-UTkMVfYC2i_-2" target="vnD2Sq1QzelHkMzMxqHE-24" edge="1">
          <mxGeometry relative="1" as="geometry">
            <mxPoint x="227.5" y="-10" as="sourcePoint" />
            <mxPoint x="77.44000000000005" y="180" as="targetPoint" />
          </mxGeometry>
        </mxCell>
        <mxCell id="vnD2Sq1QzelHkMzMxqHE-29" value="1" style="resizable=0;html=1;whiteSpace=wrap;align=right;verticalAlign=bottom;" parent="vnD2Sq1QzelHkMzMxqHE-28" connectable="0" vertex="1">
          <mxGeometry x="1" relative="1" as="geometry" />
        </mxCell>
        <mxCell id="vnD2Sq1QzelHkMzMxqHE-30" value="" style="endArrow=none;html=1;rounded=0;entryX=1;entryY=0.5;entryDx=0;entryDy=0;exitX=0;exitY=0;exitDx=0;exitDy=0;" parent="1" source="Ko-V__wU-UTkMVfYC2i_-2" target="vnD2Sq1QzelHkMzMxqHE-25" edge="1">
          <mxGeometry relative="1" as="geometry">
            <mxPoint x="267.5" y="-10" as="sourcePoint" />
            <mxPoint x="77.44000000000005" y="180" as="targetPoint" />
          </mxGeometry>
        </mxCell>
        <mxCell id="vnD2Sq1QzelHkMzMxqHE-31" value="1" style="resizable=0;html=1;whiteSpace=wrap;align=right;verticalAlign=bottom;" parent="vnD2Sq1QzelHkMzMxqHE-30" connectable="0" vertex="1">
          <mxGeometry x="1" relative="1" as="geometry" />
        </mxCell>
        <mxCell id="vnD2Sq1QzelHkMzMxqHE-42" value="Travel (tickets)" style="swimlane;childLayout=stackLayout;horizontal=1;startSize=50;horizontalStack=0;rounded=1;fontSize=14;fontStyle=0;strokeWidth=2;resizeParent=0;resizeLast=1;shadow=0;dashed=0;align=center;arcSize=4;whiteSpace=wrap;html=1;" parent="1" vertex="1">
          <mxGeometry x="-32.5" y="120" width="160" height="210" as="geometry" />
        </mxCell>
        <mxCell id="vnD2Sq1QzelHkMzMxqHE-43" value="&lt;u&gt;&lt;b&gt;travel_id&lt;/b&gt;&lt;/u&gt;&lt;div&gt;vehicle_id&lt;/div&gt;&lt;div&gt;price&lt;/div&gt;&lt;div&gt;remaining_capacity&lt;/div&gt;&lt;div&gt;transportation_company_id&lt;/div&gt;&lt;div&gt;round-trip (travel_id, null)&lt;/div&gt;&lt;div&gt;travel_class&amp;nbsp;&lt;/div&gt;&lt;div&gt;travel_status&amp;nbsp;&lt;/div&gt;" style="align=left;strokeColor=none;fillColor=none;spacingLeft=4;spacingRight=4;fontSize=12;verticalAlign=top;resizable=0;rotatable=0;part=1;html=1;whiteSpace=wrap;" parent="vnD2Sq1QzelHkMzMxqHE-42" vertex="1">
          <mxGeometry y="50" width="160" height="160" as="geometry" />
        </mxCell>
        <mxCell id="vnD2Sq1QzelHkMzMxqHE-46" value="" style="rounded=0;whiteSpace=wrap;html=1;" parent="1" vertex="1">
          <mxGeometry x="67.5" y="465.3" width="210" height="220" as="geometry" />
        </mxCell>
        <mxCell id="vnD2Sq1QzelHkMzMxqHE-47" value="Travel_route_and_date" style="swimlane;childLayout=stackLayout;horizontal=1;startSize=50;horizontalStack=0;rounded=1;fontSize=14;fontStyle=0;strokeWidth=2;resizeParent=0;resizeLast=1;shadow=0;dashed=0;align=center;arcSize=4;whiteSpace=wrap;html=1;" parent="1" vertex="1">
          <mxGeometry x="77.5" y="475.3" width="190" height="200" as="geometry" />
        </mxCell>
        <mxCell id="vnD2Sq1QzelHkMzMxqHE-48" value="&lt;div&gt;&lt;b&gt;&lt;u&gt;travel_id&lt;/u&gt;&lt;/b&gt;&lt;/div&gt;&lt;div&gt;&lt;u style=&quot;&quot;&gt;location_state&lt;/u&gt;&amp;nbsp; &amp;nbsp;-&amp;gt;&lt;/div&gt;&lt;div&gt;{ 1 to n -&amp;gt; 1 is origin, 2 to n are dectinations }&lt;/div&gt;&lt;div&gt;&lt;br&gt;&lt;/div&gt;&lt;div&gt;date&lt;/div&gt;location_name" style="align=left;strokeColor=none;fillColor=none;spacingLeft=4;spacingRight=4;fontSize=12;verticalAlign=top;resizable=0;rotatable=0;part=1;html=1;whiteSpace=wrap;" parent="vnD2Sq1QzelHkMzMxqHE-47" vertex="1">
          <mxGeometry y="50" width="190" height="150" as="geometry" />
        </mxCell>
        <mxCell id="vnD2Sq1QzelHkMzMxqHE-49" value="route" style="shape=rhombus;double=1;perimeter=rhombusPerimeter;whiteSpace=wrap;html=1;align=center;" parent="1" vertex="1">
          <mxGeometry x="112.5" y="375.3" width="120" height="60" as="geometry" />
        </mxCell>
        <mxCell id="vnD2Sq1QzelHkMzMxqHE-51" value="" style="shape=link;html=1;rounded=0;exitX=0.5;exitY=0;exitDx=0;exitDy=0;entryX=0.5;entryY=1;entryDx=0;entryDy=0;" parent="1" source="vnD2Sq1QzelHkMzMxqHE-47" target="vnD2Sq1QzelHkMzMxqHE-49" edge="1">
          <mxGeometry relative="1" as="geometry">
            <mxPoint x="247.5" y="425.3" as="sourcePoint" />
            <mxPoint x="407.5" y="425.3" as="targetPoint" />
          </mxGeometry>
        </mxCell>
        <mxCell id="vnD2Sq1QzelHkMzMxqHE-52" value="N" style="resizable=0;html=1;whiteSpace=wrap;align=right;verticalAlign=bottom;" parent="vnD2Sq1QzelHkMzMxqHE-51" connectable="0" vertex="1">
          <mxGeometry x="1" relative="1" as="geometry" />
        </mxCell>
        <mxCell id="vnD2Sq1QzelHkMzMxqHE-53" value="" style="endArrow=none;html=1;rounded=0;entryX=0.5;entryY=0;entryDx=0;entryDy=0;exitX=0.75;exitY=1;exitDx=0;exitDy=0;" parent="1" source="vnD2Sq1QzelHkMzMxqHE-43" target="vnD2Sq1QzelHkMzMxqHE-49" edge="1">
          <mxGeometry relative="1" as="geometry">
            <mxPoint x="17.5" y="400" as="sourcePoint" />
            <mxPoint x="177.5" y="400" as="targetPoint" />
          </mxGeometry>
        </mxCell>
        <mxCell id="vnD2Sq1QzelHkMzMxqHE-54" value="1" style="resizable=0;html=1;whiteSpace=wrap;align=right;verticalAlign=bottom;" parent="vnD2Sq1QzelHkMzMxqHE-53" connectable="0" vertex="1">
          <mxGeometry x="1" relative="1" as="geometry" />
        </mxCell>
        <mxCell id="vnD2Sq1QzelHkMzMxqHE-59" value="round-trip" style="shape=rhombus;perimeter=rhombusPerimeter;whiteSpace=wrap;html=1;align=center;" parent="1" vertex="1">
          <mxGeometry x="167.5" y="230" width="120" height="60" as="geometry" />
        </mxCell>
        <mxCell id="vnD2Sq1QzelHkMzMxqHE-60" value="" style="endArrow=none;html=1;rounded=0;entryX=0.5;entryY=1;entryDx=0;entryDy=0;exitX=1;exitY=0.75;exitDx=0;exitDy=0;" parent="1" source="vnD2Sq1QzelHkMzMxqHE-43" target="vnD2Sq1QzelHkMzMxqHE-59" edge="1">
          <mxGeometry relative="1" as="geometry">
            <mxPoint x="-33.5" y="320.11" as="sourcePoint" />
            <mxPoint x="-134.46000000000004" y="280" as="targetPoint" />
          </mxGeometry>
        </mxCell>
        <mxCell id="vnD2Sq1QzelHkMzMxqHE-61" value="1" style="resizable=0;html=1;whiteSpace=wrap;align=right;verticalAlign=bottom;" parent="vnD2Sq1QzelHkMzMxqHE-60" connectable="0" vertex="1">
          <mxGeometry x="1" relative="1" as="geometry" />
        </mxCell>
        <mxCell id="vnD2Sq1QzelHkMzMxqHE-62" value="" style="endArrow=none;html=1;rounded=0;entryX=0.5;entryY=0;entryDx=0;entryDy=0;exitX=1;exitY=0.25;exitDx=0;exitDy=0;" parent="1" source="vnD2Sq1QzelHkMzMxqHE-43" target="vnD2Sq1QzelHkMzMxqHE-59" edge="1">
          <mxGeometry relative="1" as="geometry">
            <mxPoint x="-32.5" y="185" as="sourcePoint" />
            <mxPoint x="146.5" y="410" as="targetPoint" />
          </mxGeometry>
        </mxCell>
        <mxCell id="vnD2Sq1QzelHkMzMxqHE-63" value="1" style="resizable=0;html=1;whiteSpace=wrap;align=right;verticalAlign=bottom;" parent="vnD2Sq1QzelHkMzMxqHE-62" connectable="0" vertex="1">
          <mxGeometry x="1" relative="1" as="geometry" />
        </mxCell>
        <mxCell id="vnD2Sq1QzelHkMzMxqHE-64" value="checks for" style="shape=rhombus;perimeter=rhombusPerimeter;whiteSpace=wrap;html=1;align=center;" parent="1" vertex="1">
          <mxGeometry x="132.5" y="10" width="155" height="80" as="geometry" />
        </mxCell>
        <mxCell id="vnD2Sq1QzelHkMzMxqHE-67" value="" style="endArrow=none;html=1;rounded=0;entryX=0;entryY=1;entryDx=0;entryDy=0;exitX=0.75;exitY=0;exitDx=0;exitDy=0;" parent="1" source="vnD2Sq1QzelHkMzMxqHE-42" target="vnD2Sq1QzelHkMzMxqHE-64" edge="1">
          <mxGeometry relative="1" as="geometry">
            <mxPoint x="37.5" y="80" as="sourcePoint" />
            <mxPoint x="37.5" y="200" as="targetPoint" />
          </mxGeometry>
        </mxCell>
        <mxCell id="vnD2Sq1QzelHkMzMxqHE-68" value="N" style="resizable=0;html=1;whiteSpace=wrap;align=right;verticalAlign=bottom;" parent="vnD2Sq1QzelHkMzMxqHE-67" connectable="0" vertex="1">
          <mxGeometry x="1" relative="1" as="geometry" />
        </mxCell>
        <mxCell id="Vd9F38IC7vIXBQjvjBuD-1" value="province" style="ellipse;whiteSpace=wrap;html=1;align=center;" parent="1" vertex="1">
          <mxGeometry x="710" y="-160" width="100" height="40" as="geometry" />
        </mxCell>
        <mxCell id="Vd9F38IC7vIXBQjvjBuD-2" value="" style="endArrow=none;html=1;rounded=0;entryX=0;entryY=0.5;entryDx=0;entryDy=0;exitX=1;exitY=0;exitDx=0;exitDy=0;" parent="1" source="vnD2Sq1QzelHkMzMxqHE-7" target="Vd9F38IC7vIXBQjvjBuD-1" edge="1">
          <mxGeometry relative="1" as="geometry">
            <mxPoint x="160" y="40" as="sourcePoint" />
            <mxPoint x="320" y="40" as="targetPoint" />
          </mxGeometry>
        </mxCell>
        <mxCell id="Vd9F38IC7vIXBQjvjBuD-3" value="" style="endArrow=none;html=1;rounded=0;entryX=1;entryY=0;entryDx=0;entryDy=0;exitX=0;exitY=0.75;exitDx=0;exitDy=0;" parent="1" source="Ko-V__wU-UTkMVfYC2i_-2" target="vnD2Sq1QzelHkMzMxqHE-64" edge="1">
          <mxGeometry relative="1" as="geometry">
            <mxPoint x="177.5" y="240" as="sourcePoint" />
            <mxPoint x="337.5" y="240" as="targetPoint" />
          </mxGeometry>
        </mxCell>
        <mxCell id="Vd9F38IC7vIXBQjvjBuD-4" value="N" style="resizable=0;html=1;whiteSpace=wrap;align=right;verticalAlign=bottom;" parent="Vd9F38IC7vIXBQjvjBuD-3" connectable="0" vertex="1">
          <mxGeometry x="1" relative="1" as="geometry" />
        </mxCell>
        <mxCell id="Vd9F38IC7vIXBQjvjBuD-18" value="Vehicle" style="swimlane;childLayout=stackLayout;horizontal=1;startSize=50;horizontalStack=0;rounded=1;fontSize=14;fontStyle=0;strokeWidth=2;resizeParent=0;resizeLast=1;shadow=0;dashed=0;align=center;arcSize=4;whiteSpace=wrap;html=1;" parent="1" vertex="1">
          <mxGeometry x="-515" y="160" width="160" height="120" as="geometry" />
        </mxCell>
        <mxCell id="Vd9F38IC7vIXBQjvjBuD-19" value="&lt;b&gt;&lt;u&gt;vehicle_id&lt;/u&gt;&lt;/b&gt;&lt;div&gt;capacity&lt;/div&gt;&lt;div&gt;&lt;br&gt;&lt;/div&gt;" style="align=left;strokeColor=none;fillColor=none;spacingLeft=4;spacingRight=4;fontSize=12;verticalAlign=top;resizable=0;rotatable=0;part=1;html=1;whiteSpace=wrap;" parent="Vd9F38IC7vIXBQjvjBuD-18" vertex="1">
          <mxGeometry y="50" width="160" height="70" as="geometry" />
        </mxCell>
        <mxCell id="Vd9F38IC7vIXBQjvjBuD-20" value="Train" style="swimlane;childLayout=stackLayout;horizontal=1;startSize=50;horizontalStack=0;rounded=1;fontSize=14;fontStyle=0;strokeWidth=2;resizeParent=0;resizeLast=1;shadow=0;dashed=0;align=center;arcSize=4;whiteSpace=wrap;html=1;" parent="1" vertex="1">
          <mxGeometry x="-335" y="390" width="190" height="150" as="geometry" />
        </mxCell>
        <mxCell id="Vd9F38IC7vIXBQjvjBuD-21" value="travel_id (no need)&lt;div&gt;stars_number&lt;/div&gt;&lt;div&gt;number_of_compartment&lt;/div&gt;&lt;div&gt;number_of_empty_compartment&lt;/div&gt;&lt;div&gt;// facilities (JSON) //&lt;/div&gt;" style="align=left;strokeColor=none;fillColor=none;spacingLeft=4;spacingRight=4;fontSize=12;verticalAlign=top;resizable=0;rotatable=0;part=1;html=1;whiteSpace=wrap;" parent="Vd9F38IC7vIXBQjvjBuD-20" vertex="1">
          <mxGeometry y="50" width="190" height="100" as="geometry" />
        </mxCell>
        <mxCell id="Vd9F38IC7vIXBQjvjBuD-22" value="" style="edgeStyle=orthogonalEdgeStyle;rounded=0;orthogonalLoop=1;jettySize=auto;html=1;exitX=0.5;exitY=1;exitDx=0;exitDy=0;entryX=0.5;entryY=0;entryDx=0;entryDy=0;" parent="1" source="Vd9F38IC7vIXBQjvjBuD-19" target="Vd9F38IC7vIXBQjvjBuD-23" edge="1">
          <mxGeometry relative="1" as="geometry">
            <mxPoint x="-395" y="360" as="targetPoint" />
          </mxGeometry>
        </mxCell>
        <mxCell id="Vd9F38IC7vIXBQjvjBuD-23" value="Flight" style="swimlane;childLayout=stackLayout;horizontal=1;startSize=50;horizontalStack=0;rounded=1;fontSize=14;fontStyle=0;strokeWidth=2;resizeParent=0;resizeLast=1;shadow=0;dashed=0;align=center;arcSize=4;whiteSpace=wrap;html=1;" parent="1" vertex="1">
          <mxGeometry x="-575" y="390" width="160" height="150" as="geometry" />
        </mxCell>
        <mxCell id="Vd9F38IC7vIXBQjvjBuD-24" value="travel_id (no need)&lt;div&gt;airline_name&lt;/div&gt;&lt;div&gt;flight_class (code)&lt;/div&gt;&lt;div&gt;flight _number&lt;/div&gt;&lt;div&gt;// facilities (JSON) //&lt;/div&gt;" style="align=left;strokeColor=none;fillColor=none;spacingLeft=4;spacingRight=4;fontSize=12;verticalAlign=top;resizable=0;rotatable=0;part=1;html=1;whiteSpace=wrap;" parent="Vd9F38IC7vIXBQjvjBuD-23" vertex="1">
          <mxGeometry y="50" width="160" height="100" as="geometry" />
        </mxCell>
        <mxCell id="Vd9F38IC7vIXBQjvjBuD-25" value="Bus" style="swimlane;childLayout=stackLayout;horizontal=1;startSize=50;horizontalStack=0;rounded=1;fontSize=14;fontStyle=0;strokeWidth=2;resizeParent=0;resizeLast=1;shadow=0;dashed=0;align=center;arcSize=4;whiteSpace=wrap;html=1;" parent="1" vertex="1">
          <mxGeometry x="-830" y="390.15999999999997" width="160" height="150" as="geometry" />
        </mxCell>
        <mxCell id="Vd9F38IC7vIXBQjvjBuD-26" value="travel_id (no need)&lt;div&gt;bus_company_name&lt;/div&gt;&lt;div&gt;bus_class (code)&lt;/div&gt;&lt;div&gt;seats_on_left&lt;/div&gt;&lt;div&gt;seats_on_right&lt;/div&gt;&lt;div&gt;// facilities (JSON) //&lt;/div&gt;" style="align=left;strokeColor=none;fillColor=none;spacingLeft=4;spacingRight=4;fontSize=12;verticalAlign=top;resizable=0;rotatable=0;part=1;html=1;whiteSpace=wrap;" parent="Vd9F38IC7vIXBQjvjBuD-25" vertex="1">
          <mxGeometry y="50" width="160" height="100" as="geometry" />
        </mxCell>
        <mxCell id="Vd9F38IC7vIXBQjvjBuD-34" value="" style="edgeStyle=orthogonalEdgeStyle;rounded=0;orthogonalLoop=1;jettySize=auto;html=1;exitX=0.75;exitY=1;exitDx=0;exitDy=0;entryX=0.5;entryY=0;entryDx=0;entryDy=0;" parent="1" source="Vd9F38IC7vIXBQjvjBuD-19" target="Vd9F38IC7vIXBQjvjBuD-20" edge="1">
          <mxGeometry relative="1" as="geometry">
            <mxPoint x="-245" y="370" as="sourcePoint" />
            <mxPoint x="-355" y="350" as="targetPoint" />
          </mxGeometry>
        </mxCell>
        <mxCell id="Vd9F38IC7vIXBQjvjBuD-35" value="" style="edgeStyle=orthogonalEdgeStyle;rounded=0;orthogonalLoop=1;jettySize=auto;html=1;exitX=0.25;exitY=1;exitDx=0;exitDy=0;entryX=0.5;entryY=0;entryDx=0;entryDy=0;" parent="1" source="Vd9F38IC7vIXBQjvjBuD-19" target="Vd9F38IC7vIXBQjvjBuD-25" edge="1">
          <mxGeometry relative="1" as="geometry">
            <mxPoint x="-525" y="310" as="sourcePoint" />
            <mxPoint x="-875" y="280" as="targetPoint" />
            <Array as="points">
              <mxPoint x="-475" y="320" />
              <mxPoint x="-775" y="320" />
            </Array>
          </mxGeometry>
        </mxCell>
        <mxCell id="Vd9F38IC7vIXBQjvjBuD-45" value="ride" style="shape=rhombus;perimeter=rhombusPerimeter;whiteSpace=wrap;html=1;align=center;" parent="1" vertex="1">
          <mxGeometry x="-280" y="180" width="120" height="60" as="geometry" />
        </mxCell>
        <mxCell id="Vd9F38IC7vIXBQjvjBuD-46" value="" style="endArrow=none;html=1;rounded=0;entryX=1;entryY=0.5;entryDx=0;entryDy=0;exitX=0;exitY=0.25;exitDx=0;exitDy=0;" parent="1" source="vnD2Sq1QzelHkMzMxqHE-43" target="Vd9F38IC7vIXBQjvjBuD-45" edge="1">
          <mxGeometry relative="1" as="geometry">
            <mxPoint x="-582.5" y="350" as="sourcePoint" />
            <mxPoint x="-422.5" y="350" as="targetPoint" />
          </mxGeometry>
        </mxCell>
        <mxCell id="Vd9F38IC7vIXBQjvjBuD-47" value="N" style="resizable=0;html=1;whiteSpace=wrap;align=right;verticalAlign=bottom;" parent="Vd9F38IC7vIXBQjvjBuD-46" connectable="0" vertex="1">
          <mxGeometry x="1" relative="1" as="geometry" />
        </mxCell>
        <mxCell id="Vd9F38IC7vIXBQjvjBuD-50" value="" style="shape=link;html=1;rounded=0;exitX=1;exitY=0;exitDx=0;exitDy=0;entryX=0;entryY=0.5;entryDx=0;entryDy=0;" parent="1" source="Vd9F38IC7vIXBQjvjBuD-19" target="Vd9F38IC7vIXBQjvjBuD-45" edge="1">
          <mxGeometry relative="1" as="geometry">
            <mxPoint x="-185" y="260" as="sourcePoint" />
            <mxPoint x="-25" y="260" as="targetPoint" />
          </mxGeometry>
        </mxCell>
        <mxCell id="Vd9F38IC7vIXBQjvjBuD-51" value="1" style="resizable=0;html=1;whiteSpace=wrap;align=right;verticalAlign=bottom;" parent="Vd9F38IC7vIXBQjvjBuD-50" connectable="0" vertex="1">
          <mxGeometry x="1" relative="1" as="geometry" />
        </mxCell>
        <mxCell id="Vd9F38IC7vIXBQjvjBuD-56" value="" style="edgeStyle=orthogonalEdgeStyle;rounded=0;orthogonalLoop=1;jettySize=auto;html=1;exitX=1;exitY=0.5;exitDx=0;exitDy=0;entryX=0.75;entryY=0;entryDx=0;entryDy=0;" parent="1" source="Vd9F38IC7vIXBQjvjBuD-21" target="Vd9F38IC7vIXBQjvjBuD-52" edge="1">
          <mxGeometry relative="1" as="geometry">
            <mxPoint x="-205" y="770" as="targetPoint" />
            <Array as="points">
              <mxPoint x="-114" y="490" />
            </Array>
          </mxGeometry>
        </mxCell>
        <mxCell id="Vd9F38IC7vIXBQjvjBuD-52" value="Train_facilities" style="swimlane;childLayout=stackLayout;horizontal=1;startSize=50;horizontalStack=0;rounded=1;fontSize=14;fontStyle=0;strokeWidth=2;resizeParent=0;resizeLast=1;shadow=0;dashed=0;align=center;arcSize=4;whiteSpace=wrap;html=1;" parent="1" vertex="1">
          <mxGeometry x="-267.5" y="560" width="205" height="150" as="geometry" />
        </mxCell>
        <mxCell id="Vd9F38IC7vIXBQjvjBuD-53" value="sleeper_compartment (boolean)&lt;div&gt;reception&amp;nbsp;&lt;span style=&quot;background-color: transparent; color: light-dark(rgb(0, 0, 0), rgb(255, 255, 255));&quot;&gt;(boolean)&lt;/span&gt;&lt;/div&gt;&lt;div&gt;internet&amp;nbsp;&lt;span style=&quot;background-color: transparent; color: light-dark(rgb(0, 0, 0), rgb(255, 255, 255));&quot;&gt;(boolean)&lt;/span&gt;&lt;/div&gt;&lt;div&gt;air_conditioning (boolean)&lt;/div&gt;&lt;div&gt;more (JSON)&lt;br&gt;&lt;div&gt;&lt;br&gt;&lt;/div&gt;&lt;/div&gt;" style="align=left;strokeColor=none;fillColor=none;spacingLeft=4;spacingRight=4;fontSize=12;verticalAlign=top;resizable=0;rotatable=0;part=1;html=1;whiteSpace=wrap;" parent="Vd9F38IC7vIXBQjvjBuD-52" vertex="1">
          <mxGeometry y="50" width="205" height="100" as="geometry" />
        </mxCell>
        <mxCell id="Vd9F38IC7vIXBQjvjBuD-61" value="" style="edgeStyle=orthogonalEdgeStyle;rounded=0;orthogonalLoop=1;jettySize=auto;html=1;exitX=1;exitY=0.5;exitDx=0;exitDy=0;entryX=0.75;entryY=0;entryDx=0;entryDy=0;" parent="1" source="Vd9F38IC7vIXBQjvjBuD-24" target="Vd9F38IC7vIXBQjvjBuD-57" edge="1">
          <mxGeometry relative="1" as="geometry">
            <mxPoint x="-355" y="540" as="targetPoint" />
            <Array as="points">
              <mxPoint x="-379" y="490" />
            </Array>
          </mxGeometry>
        </mxCell>
        <mxCell id="Vd9F38IC7vIXBQjvjBuD-57" value="Flight_facilities" style="swimlane;childLayout=stackLayout;horizontal=1;startSize=50;horizontalStack=0;rounded=1;fontSize=14;fontStyle=0;strokeWidth=2;resizeParent=0;resizeLast=1;shadow=0;dashed=0;align=center;arcSize=4;whiteSpace=wrap;html=1;" parent="1" vertex="1">
          <mxGeometry x="-517.5" y="560" width="185" height="150" as="geometry" />
        </mxCell>
        <mxCell id="Vd9F38IC7vIXBQjvjBuD-58" value="&lt;div&gt;reception&amp;nbsp;&lt;span style=&quot;background-color: transparent; color: light-dark(rgb(0, 0, 0), rgb(255, 255, 255));&quot;&gt;(boolean)&lt;/span&gt;&lt;/div&gt;&lt;div&gt;internet&amp;nbsp;&lt;span style=&quot;background-color: transparent; color: light-dark(rgb(0, 0, 0), rgb(255, 255, 255));&quot;&gt;(boolean)&lt;/span&gt;&lt;/div&gt;&lt;div&gt;bed_chair (boolean)&lt;/div&gt;&lt;div&gt;more (JSON)&lt;br&gt;&lt;div&gt;&lt;br&gt;&lt;/div&gt;&lt;/div&gt;" style="align=left;strokeColor=none;fillColor=none;spacingLeft=4;spacingRight=4;fontSize=12;verticalAlign=top;resizable=0;rotatable=0;part=1;html=1;whiteSpace=wrap;" parent="Vd9F38IC7vIXBQjvjBuD-57" vertex="1">
          <mxGeometry y="50" width="185" height="100" as="geometry" />
        </mxCell>
        <mxCell id="Vd9F38IC7vIXBQjvjBuD-62" value="" style="edgeStyle=orthogonalEdgeStyle;rounded=0;orthogonalLoop=1;jettySize=auto;html=1;exitX=1;exitY=0.5;exitDx=0;exitDy=0;entryX=0.75;entryY=0;entryDx=0;entryDy=0;" parent="1" source="Vd9F38IC7vIXBQjvjBuD-26" target="Vd9F38IC7vIXBQjvjBuD-59" edge="1">
          <mxGeometry relative="1" as="geometry">
            <mxPoint x="-640" y="810" as="targetPoint" />
            <Array as="points">
              <mxPoint x="-636" y="490" />
            </Array>
          </mxGeometry>
        </mxCell>
        <mxCell id="Vd9F38IC7vIXBQjvjBuD-59" value="Bus_facilities" style="swimlane;childLayout=stackLayout;horizontal=1;startSize=50;horizontalStack=0;rounded=1;fontSize=14;fontStyle=0;strokeWidth=2;resizeParent=0;resizeLast=1;shadow=0;dashed=0;align=center;arcSize=4;whiteSpace=wrap;html=1;" parent="1" vertex="1">
          <mxGeometry x="-790" y="560" width="205" height="150" as="geometry" />
        </mxCell>
        <mxCell id="Vd9F38IC7vIXBQjvjBuD-60" value="personal_monitor (boolean)&lt;div&gt;reception&amp;nbsp;&lt;span style=&quot;background-color: transparent; color: light-dark(rgb(0, 0, 0), rgb(255, 255, 255));&quot;&gt;(boolean)&lt;/span&gt;&lt;/div&gt;&lt;div&gt;internet&amp;nbsp;&lt;span style=&quot;background-color: transparent; color: light-dark(rgb(0, 0, 0), rgb(255, 255, 255));&quot;&gt;(boolean)&lt;/span&gt;&lt;/div&gt;&lt;div&gt;air_conditioning (boolean)&lt;/div&gt;&lt;div&gt;more (JSON)&lt;br&gt;&lt;div&gt;&lt;br&gt;&lt;/div&gt;&lt;/div&gt;" style="align=left;strokeColor=none;fillColor=none;spacingLeft=4;spacingRight=4;fontSize=12;verticalAlign=top;resizable=0;rotatable=0;part=1;html=1;whiteSpace=wrap;" parent="Vd9F38IC7vIXBQjvjBuD-59" vertex="1">
          <mxGeometry y="50" width="205" height="100" as="geometry" />
        </mxCell>
        <mxCell id="Vd9F38IC7vIXBQjvjBuD-63" value="Reservation" style="swimlane;childLayout=stackLayout;horizontal=1;startSize=50;horizontalStack=0;rounded=1;fontSize=14;fontStyle=0;strokeWidth=2;resizeParent=0;resizeLast=1;shadow=0;dashed=0;align=center;arcSize=4;whiteSpace=wrap;html=1;" parent="1" vertex="1">
          <mxGeometry x="-242.5" y="-659.7" width="180" height="210" as="geometry" />
        </mxCell>
        <mxCell id="Vd9F38IC7vIXBQjvjBuD-64" value="&lt;div&gt;&lt;div&gt;&lt;b&gt;&lt;u&gt;travel_id&lt;/u&gt;&lt;/b&gt;&lt;/div&gt;&lt;div&gt;&lt;b&gt;&lt;u&gt;user_id&lt;/u&gt;&lt;/b&gt;&lt;/div&gt;&lt;div&gt;&lt;u&gt;seat_number&lt;/u&gt;&lt;/div&gt;&lt;div&gt;&lt;u&gt;(combine -&amp;gt; reservation_id)&lt;/u&gt;&lt;/div&gt;&lt;div&gt;&lt;u&gt;&lt;br&gt;&lt;/u&gt;&lt;/div&gt;&lt;div&gt;payment_status&amp;nbsp;&lt;u&gt;&lt;/u&gt;&lt;/div&gt;&lt;div&gt;reservation_status&amp;nbsp;&lt;/div&gt;&lt;div&gt;resercation_date&lt;/div&gt;&lt;/div&gt;&lt;div&gt;expiration_date&lt;/div&gt;&lt;div&gt;percentage_discount&lt;/div&gt;" style="align=left;strokeColor=none;fillColor=none;spacingLeft=4;spacingRight=4;fontSize=12;verticalAlign=top;resizable=0;rotatable=0;part=1;html=1;whiteSpace=wrap;" parent="Vd9F38IC7vIXBQjvjBuD-63" vertex="1">
          <mxGeometry y="50" width="180" height="160" as="geometry" />
        </mxCell>
        <mxCell id="Vd9F38IC7vIXBQjvjBuD-99" value="for" style="shape=rhombus;perimeter=rhombusPerimeter;whiteSpace=wrap;html=1;align=center;" parent="1" vertex="1">
          <mxGeometry x="7.5" y="-40" width="120" height="60" as="geometry" />
        </mxCell>
        <mxCell id="Vd9F38IC7vIXBQjvjBuD-100" value="" style="endArrow=none;html=1;rounded=0;exitX=0.25;exitY=0;exitDx=0;exitDy=0;entryX=0.5;entryY=1;entryDx=0;entryDy=0;" parent="1" source="vnD2Sq1QzelHkMzMxqHE-42" target="Vd9F38IC7vIXBQjvjBuD-99" edge="1">
          <mxGeometry relative="1" as="geometry">
            <mxPoint x="-252.5" y="-80" as="sourcePoint" />
            <mxPoint x="-112.5" y="70" as="targetPoint" />
          </mxGeometry>
        </mxCell>
        <mxCell id="Vd9F38IC7vIXBQjvjBuD-101" value="1" style="resizable=0;html=1;whiteSpace=wrap;align=right;verticalAlign=bottom;" parent="Vd9F38IC7vIXBQjvjBuD-100" connectable="0" vertex="1">
          <mxGeometry x="1" relative="1" as="geometry" />
        </mxCell>
        <mxCell id="Vd9F38IC7vIXBQjvjBuD-108" value="" style="shape=link;html=1;rounded=0;entryX=0;entryY=0.5;entryDx=0;entryDy=0;exitX=1;exitY=0.75;exitDx=0;exitDy=0;" parent="1" source="Vd9F38IC7vIXBQjvjBuD-64" target="Vd9F38IC7vIXBQjvjBuD-99" edge="1">
          <mxGeometry relative="1" as="geometry">
            <mxPoint x="-411.5" y="-120" as="sourcePoint" />
            <mxPoint x="-251.5" y="-120" as="targetPoint" />
            <Array as="points">
              <mxPoint x="7.5" y="-490" />
            </Array>
          </mxGeometry>
        </mxCell>
        <mxCell id="Vd9F38IC7vIXBQjvjBuD-109" value="N" style="resizable=0;html=1;whiteSpace=wrap;align=right;verticalAlign=bottom;" parent="Vd9F38IC7vIXBQjvjBuD-108" connectable="0" vertex="1">
          <mxGeometry x="1" relative="1" as="geometry" />
        </mxCell>
        <mxCell id="Vd9F38IC7vIXBQjvjBuD-110" value="" style="shape=link;html=1;rounded=0;exitX=1;exitY=0.25;exitDx=0;exitDy=0;entryX=0;entryY=0.5;entryDx=0;entryDy=0;" parent="1" source="Vd9F38IC7vIXBQjvjBuD-64" target="vnD2Sq1QzelHkMzMxqHE-25" edge="1">
          <mxGeometry relative="1" as="geometry">
            <mxPoint x="-432.5" y="-670" as="sourcePoint" />
            <mxPoint x="-142.5" y="-730" as="targetPoint" />
            <Array as="points">
              <mxPoint x="87.5" y="-570" />
            </Array>
          </mxGeometry>
        </mxCell>
        <mxCell id="Vd9F38IC7vIXBQjvjBuD-111" value="N" style="resizable=0;html=1;whiteSpace=wrap;align=right;verticalAlign=bottom;" parent="Vd9F38IC7vIXBQjvjBuD-110" connectable="0" vertex="1">
          <mxGeometry x="1" relative="1" as="geometry" />
        </mxCell>
        <mxCell id="Vd9F38IC7vIXBQjvjBuD-112" value="" style="shape=link;html=1;rounded=0;exitX=1;exitY=0.5;exitDx=0;exitDy=0;entryX=0;entryY=0.5;entryDx=0;entryDy=0;" parent="1" source="Vd9F38IC7vIXBQjvjBuD-64" target="vnD2Sq1QzelHkMzMxqHE-24" edge="1">
          <mxGeometry relative="1" as="geometry">
            <mxPoint x="-432.5" y="-670" as="sourcePoint" />
            <mxPoint x="-272.5" y="-670" as="targetPoint" />
            <Array as="points">
              <mxPoint x="47.5" y="-530" />
            </Array>
          </mxGeometry>
        </mxCell>
        <mxCell id="Vd9F38IC7vIXBQjvjBuD-113" value="N" style="resizable=0;html=1;whiteSpace=wrap;align=right;verticalAlign=bottom;" parent="Vd9F38IC7vIXBQjvjBuD-112" connectable="0" vertex="1">
          <mxGeometry x="1" relative="1" as="geometry" />
        </mxCell>
        <mxCell id="Vd9F38IC7vIXBQjvjBuD-116" value="" style="endArrow=none;html=1;rounded=0;entryX=0;entryY=0.5;entryDx=0;entryDy=0;exitX=1;exitY=0;exitDx=0;exitDy=0;" parent="1" source="Vd9F38IC7vIXBQjvjBuD-63" target="Ko-V__wU-UTkMVfYC2i_-50" edge="1">
          <mxGeometry relative="1" as="geometry">
            <mxPoint x="407.5" y="-522.5" as="sourcePoint" />
            <mxPoint x="427.5" y="-665" as="targetPoint" />
          </mxGeometry>
        </mxCell>
        <mxCell id="Vd9F38IC7vIXBQjvjBuD-117" value="1" style="resizable=0;html=1;whiteSpace=wrap;align=right;verticalAlign=bottom;" parent="Vd9F38IC7vIXBQjvjBuD-116" connectable="0" vertex="1">
          <mxGeometry x="1" relative="1" as="geometry" />
        </mxCell>
        <mxCell id="Vd9F38IC7vIXBQjvjBuD-123" value="" style="endArrow=none;html=1;rounded=0;entryX=0.5;entryY=1;entryDx=0;entryDy=0;exitX=0.5;exitY=0;exitDx=0;exitDy=0;" parent="1" source="Ko-V__wU-UTkMVfYC2i_-51" target="Ko-V__wU-UTkMVfYC2i_-50" edge="1">
          <mxGeometry relative="1" as="geometry">
            <mxPoint x="157.5" y="-445" as="sourcePoint" />
            <mxPoint x="317.5" y="-445" as="targetPoint" />
          </mxGeometry>
        </mxCell>
        <mxCell id="Vd9F38IC7vIXBQjvjBuD-124" value="N" style="resizable=0;html=1;whiteSpace=wrap;align=right;verticalAlign=bottom;" parent="Vd9F38IC7vIXBQjvjBuD-123" connectable="0" vertex="1">
          <mxGeometry x="1" relative="1" as="geometry" />
        </mxCell>
        <mxCell id="Vd9F38IC7vIXBQjvjBuD-128" value="refunds" style="swimlane;childLayout=stackLayout;horizontal=1;startSize=50;horizontalStack=0;rounded=1;fontSize=14;fontStyle=0;strokeWidth=2;resizeParent=0;resizeLast=1;shadow=0;dashed=0;align=center;arcSize=4;whiteSpace=wrap;html=1;" parent="1" vertex="1">
          <mxGeometry x="132.5" y="-470" width="160" height="120" as="geometry" />
        </mxCell>
        <mxCell id="Vd9F38IC7vIXBQjvjBuD-129" value="&lt;b&gt;&lt;u&gt;reservation_id&lt;/u&gt;&lt;/b&gt;&lt;div&gt;refund_method (code)&lt;/div&gt;&lt;div&gt;amount_refunded&lt;/div&gt;&lt;div&gt;date&lt;/div&gt;" style="align=left;strokeColor=none;fillColor=none;spacingLeft=4;spacingRight=4;fontSize=12;verticalAlign=top;resizable=0;rotatable=0;part=1;html=1;whiteSpace=wrap;" parent="Vd9F38IC7vIXBQjvjBuD-128" vertex="1">
          <mxGeometry y="50" width="160" height="70" as="geometry" />
        </mxCell>
        <mxCell id="Vd9F38IC7vIXBQjvjBuD-130" value="refund" style="shape=rhombus;perimeter=rhombusPerimeter;whiteSpace=wrap;html=1;align=center;" parent="1" vertex="1">
          <mxGeometry x="112.5" y="-640" width="120" height="60" as="geometry" />
        </mxCell>
        <mxCell id="Vd9F38IC7vIXBQjvjBuD-131" value="" style="endArrow=none;html=1;rounded=0;exitX=1;exitY=0;exitDx=0;exitDy=0;entryX=0;entryY=0.5;entryDx=0;entryDy=0;" parent="1" source="Vd9F38IC7vIXBQjvjBuD-64" target="Vd9F38IC7vIXBQjvjBuD-130" edge="1">
          <mxGeometry relative="1" as="geometry">
            <mxPoint x="367.5" y="-485" as="sourcePoint" />
            <mxPoint x="427.5" y="-595" as="targetPoint" />
          </mxGeometry>
        </mxCell>
        <mxCell id="Vd9F38IC7vIXBQjvjBuD-132" value="1" style="resizable=0;html=1;whiteSpace=wrap;align=right;verticalAlign=bottom;" parent="Vd9F38IC7vIXBQjvjBuD-131" connectable="0" vertex="1">
          <mxGeometry x="1" relative="1" as="geometry" />
        </mxCell>
        <mxCell id="Vd9F38IC7vIXBQjvjBuD-133" value="" style="endArrow=none;html=1;rounded=0;entryX=0.5;entryY=1;entryDx=0;entryDy=0;exitX=0.25;exitY=0;exitDx=0;exitDy=0;" parent="1" source="Vd9F38IC7vIXBQjvjBuD-128" target="Vd9F38IC7vIXBQjvjBuD-130" edge="1">
          <mxGeometry relative="1" as="geometry">
            <mxPoint x="267.5" y="-595" as="sourcePoint" />
            <mxPoint x="427.5" y="-595" as="targetPoint" />
          </mxGeometry>
        </mxCell>
        <mxCell id="Vd9F38IC7vIXBQjvjBuD-134" value="1" style="resizable=0;html=1;whiteSpace=wrap;align=right;verticalAlign=bottom;" parent="Vd9F38IC7vIXBQjvjBuD-133" connectable="0" vertex="1">
          <mxGeometry x="1" relative="1" as="geometry" />
        </mxCell>
        <mxCell id="Vd9F38IC7vIXBQjvjBuD-139" style="edgeStyle=orthogonalEdgeStyle;rounded=0;orthogonalLoop=1;jettySize=auto;html=1;exitX=0.5;exitY=1;exitDx=0;exitDy=0;entryX=0.5;entryY=0;entryDx=0;entryDy=0;" parent="1" source="Ko-V__wU-UTkMVfYC2i_-2" target="vnD2Sq1QzelHkMzMxqHE-18" edge="1">
          <mxGeometry relative="1" as="geometry" />
        </mxCell>
        <mxCell id="Vd9F38IC7vIXBQjvjBuD-140" value="report a problem" style="shape=rhombus;perimeter=rhombusPerimeter;whiteSpace=wrap;html=1;align=center;" parent="1" vertex="1">
          <mxGeometry x="357.5" y="360" width="120" height="60" as="geometry" />
        </mxCell>
        <mxCell id="Vd9F38IC7vIXBQjvjBuD-141" value="" style="endArrow=none;html=1;rounded=0;entryX=1;entryY=0.5;entryDx=0;entryDy=0;exitX=0;exitY=0.5;exitDx=0;exitDy=0;" parent="1" source="Ko-V__wU-UTkMVfYC2i_-75" target="Vd9F38IC7vIXBQjvjBuD-140" edge="1">
          <mxGeometry relative="1" as="geometry">
            <mxPoint x="757.5" y="380" as="sourcePoint" />
            <mxPoint x="717.5" y="280" as="targetPoint" />
          </mxGeometry>
        </mxCell>
        <mxCell id="Vd9F38IC7vIXBQjvjBuD-142" value="N" style="resizable=0;html=1;whiteSpace=wrap;align=right;verticalAlign=bottom;" parent="Vd9F38IC7vIXBQjvjBuD-141" connectable="0" vertex="1">
          <mxGeometry x="1" relative="1" as="geometry" />
        </mxCell>
        <mxCell id="Vd9F38IC7vIXBQjvjBuD-145" value="check" style="shape=rhombus;perimeter=rhombusPerimeter;whiteSpace=wrap;html=1;align=center;" parent="1" vertex="1">
          <mxGeometry x="517.5" y="280" width="120" height="60" as="geometry" />
        </mxCell>
        <mxCell id="Vd9F38IC7vIXBQjvjBuD-146" value="" style="endArrow=none;html=1;rounded=0;entryX=1;entryY=0.5;entryDx=0;entryDy=0;exitX=0;exitY=0;exitDx=0;exitDy=0;" parent="1" source="Ko-V__wU-UTkMVfYC2i_-75" target="Vd9F38IC7vIXBQjvjBuD-145" edge="1">
          <mxGeometry relative="1" as="geometry">
            <mxPoint x="577.5" y="340" as="sourcePoint" />
            <mxPoint x="737.5" y="340" as="targetPoint" />
          </mxGeometry>
        </mxCell>
        <mxCell id="Vd9F38IC7vIXBQjvjBuD-147" value="N" style="resizable=0;html=1;whiteSpace=wrap;align=right;verticalAlign=bottom;" parent="Vd9F38IC7vIXBQjvjBuD-146" connectable="0" vertex="1">
          <mxGeometry x="1" relative="1" as="geometry" />
        </mxCell>
        <mxCell id="Vd9F38IC7vIXBQjvjBuD-151" value="" style="endArrow=none;html=1;rounded=0;entryX=0.5;entryY=0;entryDx=0;entryDy=0;exitX=0.75;exitY=1;exitDx=0;exitDy=0;" parent="1" source="vnD2Sq1QzelHkMzMxqHE-18" target="Vd9F38IC7vIXBQjvjBuD-145" edge="1">
          <mxGeometry relative="1" as="geometry">
            <mxPoint x="577.5" y="340" as="sourcePoint" />
            <mxPoint x="737.5" y="340" as="targetPoint" />
          </mxGeometry>
        </mxCell>
        <mxCell id="Vd9F38IC7vIXBQjvjBuD-152" value="N" style="resizable=0;html=1;whiteSpace=wrap;align=right;verticalAlign=bottom;" parent="Vd9F38IC7vIXBQjvjBuD-151" connectable="0" vertex="1">
          <mxGeometry x="1" relative="1" as="geometry" />
        </mxCell>
        <mxCell id="y8UEjplJ2lWkdDmNYrxO-12" value="" style="endArrow=none;html=1;rounded=0;exitX=0.25;exitY=1;exitDx=0;exitDy=0;entryX=0.5;entryY=0;entryDx=0;entryDy=0;" parent="1" source="Ko-V__wU-UTkMVfYC2i_-2" target="Vd9F38IC7vIXBQjvjBuD-140" edge="1">
          <mxGeometry relative="1" as="geometry">
            <mxPoint x="537.5" y="-10" as="sourcePoint" />
            <mxPoint x="697.5" y="-10" as="targetPoint" />
          </mxGeometry>
        </mxCell>
        <mxCell id="y8UEjplJ2lWkdDmNYrxO-13" value="1" style="resizable=0;html=1;whiteSpace=wrap;align=right;verticalAlign=bottom;" parent="y8UEjplJ2lWkdDmNYrxO-12" connectable="0" vertex="1">
          <mxGeometry x="1" relative="1" as="geometry" />
        </mxCell>
        <mxCell id="y8UEjplJ2lWkdDmNYrxO-14" value="check" style="shape=rhombus;perimeter=rhombusPerimeter;whiteSpace=wrap;html=1;align=center;" parent="1" vertex="1">
          <mxGeometry x="770" y="130" width="120" height="60" as="geometry" />
        </mxCell>
        <mxCell id="y8UEjplJ2lWkdDmNYrxO-24" value="" style="endArrow=none;html=1;rounded=0;exitX=0.75;exitY=0;exitDx=0;exitDy=0;entryX=0.5;entryY=0;entryDx=0;entryDy=0;" parent="1" source="Vd9F38IC7vIXBQjvjBuD-63" target="y8UEjplJ2lWkdDmNYrxO-14" edge="1">
          <mxGeometry relative="1" as="geometry">
            <mxPoint x="227.5" y="-500" as="sourcePoint" />
            <mxPoint x="387.5" y="-500" as="targetPoint" />
            <Array as="points">
              <mxPoint x="-107.5" y="-740" />
              <mxPoint x="207.5" y="-740" />
              <mxPoint x="830" y="-740" />
            </Array>
          </mxGeometry>
        </mxCell>
        <mxCell id="y8UEjplJ2lWkdDmNYrxO-25" value="N" style="resizable=0;html=1;whiteSpace=wrap;align=right;verticalAlign=bottom;" parent="y8UEjplJ2lWkdDmNYrxO-24" connectable="0" vertex="1">
          <mxGeometry x="1" relative="1" as="geometry" />
        </mxCell>
        <mxCell id="y8UEjplJ2lWkdDmNYrxO-29" value="paying" style="shape=rhombus;perimeter=rhombusPerimeter;whiteSpace=wrap;html=1;align=center;" parent="1" vertex="1">
          <mxGeometry x="330" y="-310" width="120" height="60" as="geometry" />
        </mxCell>
        <mxCell id="y8UEjplJ2lWkdDmNYrxO-30" value="" style="endArrow=none;html=1;rounded=0;exitX=0.25;exitY=0;exitDx=0;exitDy=0;entryX=0.5;entryY=1;entryDx=0;entryDy=0;" parent="1" source="Ko-V__wU-UTkMVfYC2i_-1" target="y8UEjplJ2lWkdDmNYrxO-29" edge="1">
          <mxGeometry relative="1" as="geometry">
            <mxPoint x="267.5" y="-450" as="sourcePoint" />
            <mxPoint x="427.5" y="-450" as="targetPoint" />
          </mxGeometry>
        </mxCell>
        <mxCell id="y8UEjplJ2lWkdDmNYrxO-31" value="1" style="resizable=0;html=1;whiteSpace=wrap;align=right;verticalAlign=bottom;" parent="y8UEjplJ2lWkdDmNYrxO-30" connectable="0" vertex="1">
          <mxGeometry x="1" relative="1" as="geometry" />
        </mxCell>
        <mxCell id="y8UEjplJ2lWkdDmNYrxO-41" value="" style="endArrow=none;html=1;rounded=0;entryX=0.5;entryY=0;entryDx=0;entryDy=0;exitX=0.5;exitY=1;exitDx=0;exitDy=0;" parent="1" source="Ko-V__wU-UTkMVfYC2i_-52" target="y8UEjplJ2lWkdDmNYrxO-29" edge="1">
          <mxGeometry relative="1" as="geometry">
            <mxPoint x="247.5" y="-485" as="sourcePoint" />
            <mxPoint x="157.5" y="-410" as="targetPoint" />
          </mxGeometry>
        </mxCell>
        <mxCell id="y8UEjplJ2lWkdDmNYrxO-42" value="N" style="resizable=0;html=1;whiteSpace=wrap;align=right;verticalAlign=bottom;" parent="y8UEjplJ2lWkdDmNYrxO-41" connectable="0" vertex="1">
          <mxGeometry x="1" relative="1" as="geometry" />
        </mxCell>
        <mxCell id="y8UEjplJ2lWkdDmNYrxO-52" value="Get_checked" style="swimlane;childLayout=stackLayout;horizontal=1;startSize=50;horizontalStack=0;rounded=1;fontSize=14;fontStyle=0;strokeWidth=2;resizeParent=0;resizeLast=1;shadow=0;dashed=0;align=center;arcSize=4;whiteSpace=wrap;html=1;" parent="1" vertex="1">
          <mxGeometry x="930" y="110" width="160" height="120" as="geometry" />
        </mxCell>
        <mxCell id="y8UEjplJ2lWkdDmNYrxO-53" value="&lt;u&gt;&lt;b&gt;reservation_id&lt;/b&gt;&lt;/u&gt;&lt;div&gt;&lt;b&gt;&lt;u&gt;admin_id&lt;br&gt;&lt;/u&gt;&lt;/b&gt;&lt;div&gt;statuse (canceled, correction, accept)&lt;/div&gt;&lt;/div&gt;" style="align=left;strokeColor=none;fillColor=none;spacingLeft=4;spacingRight=4;fontSize=12;verticalAlign=top;resizable=0;rotatable=0;part=1;html=1;whiteSpace=wrap;" parent="y8UEjplJ2lWkdDmNYrxO-52" vertex="1">
          <mxGeometry y="50" width="160" height="70" as="geometry" />
        </mxCell>
        <mxCell id="y8UEjplJ2lWkdDmNYrxO-58" value="" style="endArrow=none;html=1;rounded=0;entryX=0;entryY=0.5;entryDx=0;entryDy=0;exitX=1;exitY=0.5;exitDx=0;exitDy=0;" parent="1" source="vnD2Sq1QzelHkMzMxqHE-18" target="y8UEjplJ2lWkdDmNYrxO-14" edge="1">
          <mxGeometry relative="1" as="geometry">
            <mxPoint x="647.5" y="160" as="sourcePoint" />
            <mxPoint x="807.5" y="160" as="targetPoint" />
          </mxGeometry>
        </mxCell>
        <mxCell id="y8UEjplJ2lWkdDmNYrxO-59" value="1" style="resizable=0;html=1;whiteSpace=wrap;align=right;verticalAlign=bottom;" parent="y8UEjplJ2lWkdDmNYrxO-58" connectable="0" vertex="1">
          <mxGeometry x="1" relative="1" as="geometry" />
        </mxCell>
        <mxCell id="y8UEjplJ2lWkdDmNYrxO-60" value="" style="endArrow=none;html=1;rounded=0;entryX=1;entryY=0.5;entryDx=0;entryDy=0;exitX=0;exitY=0;exitDx=0;exitDy=0;" parent="1" source="y8UEjplJ2lWkdDmNYrxO-53" target="y8UEjplJ2lWkdDmNYrxO-14" edge="1">
          <mxGeometry relative="1" as="geometry">
            <mxPoint x="617.5" y="60" as="sourcePoint" />
            <mxPoint x="777.5" y="60" as="targetPoint" />
          </mxGeometry>
        </mxCell>
        <mxCell id="y8UEjplJ2lWkdDmNYrxO-61" value="N" style="resizable=0;html=1;whiteSpace=wrap;align=right;verticalAlign=bottom;" parent="y8UEjplJ2lWkdDmNYrxO-60" connectable="0" vertex="1">
          <mxGeometry x="1" relative="1" as="geometry" />
        </mxCell>
        <mxCell id="y8UEjplJ2lWkdDmNYrxO-62" value="canceled" style="swimlane;childLayout=stackLayout;horizontal=1;startSize=50;horizontalStack=0;rounded=1;fontSize=14;fontStyle=0;strokeWidth=2;resizeParent=0;resizeLast=1;shadow=0;dashed=0;align=center;arcSize=4;whiteSpace=wrap;html=1;" parent="1" vertex="1">
          <mxGeometry x="-232.5" y="-380" width="160" height="120" as="geometry" />
        </mxCell>
        <mxCell id="y8UEjplJ2lWkdDmNYrxO-63" value="&lt;div&gt;canceled_date&lt;/div&gt;&lt;div&gt;&lt;br&gt;&lt;/div&gt;" style="align=left;strokeColor=none;fillColor=none;spacingLeft=4;spacingRight=4;fontSize=12;verticalAlign=top;resizable=0;rotatable=0;part=1;html=1;whiteSpace=wrap;" parent="y8UEjplJ2lWkdDmNYrxO-62" vertex="1">
          <mxGeometry y="50" width="160" height="70" as="geometry" />
        </mxCell>
        <mxCell id="y8UEjplJ2lWkdDmNYrxO-64" value="" style="edgeStyle=orthogonalEdgeStyle;rounded=0;orthogonalLoop=1;jettySize=auto;html=1;entryX=0.5;entryY=0;entryDx=0;entryDy=0;" parent="1" source="Vd9F38IC7vIXBQjvjBuD-64" target="y8UEjplJ2lWkdDmNYrxO-62" edge="1">
          <mxGeometry relative="1" as="geometry" />
        </mxCell>
        <mxCell id="y8UEjplJ2lWkdDmNYrxO-67" value="" style="endArrow=none;html=1;rounded=0;exitX=0.25;exitY=1;exitDx=0;exitDy=0;entryX=0.5;entryY=0;entryDx=0;entryDy=0;" parent="1" source="y8UEjplJ2lWkdDmNYrxO-63" target="y8UEjplJ2lWkdDmNYrxO-73" edge="1">
          <mxGeometry relative="1" as="geometry">
            <mxPoint x="127.5" y="-360" as="sourcePoint" />
            <mxPoint x="-172.5" y="-240" as="targetPoint" />
          </mxGeometry>
        </mxCell>
        <mxCell id="y8UEjplJ2lWkdDmNYrxO-73" value="refund_percentage" style="ellipse;whiteSpace=wrap;html=1;align=center;dashed=1;" parent="1" vertex="1">
          <mxGeometry x="-242.5" y="-230" width="130" height="40" as="geometry" />
        </mxCell>
      </root>
    </mxGraphModel>
  </diagram>
</mxfile>
